<svg xmlns="http://www.w3.org/2000/svg" viewBox="0 0 699.34 699.34"><g id="Layer_2" data-name="Layer 2"><g id="Layer_1-2" data-name="Layer 1"><path d="M329.08,0C147.33,0,0,147.33,0,329.08S147.33,658.16,329.08,658.16a327.55,327.55,0,0,0,153.24-37.78L345.4,483.46a157.09,157.09,0,0,1-16.32.85A155.23,155.23,0,1,1,484.31,329.08a157.09,157.09,0,0,1-.85,16.32L620.38,482.32a327.55,327.55,0,0,0,37.78-153.24C658.16,147.33,510.83,0,329.08,0Z" style="fill:#7ac943"/><polygon points="698.63 635.32 438.2 374.89 329.13 329.14 374.89 438.21 635.32 698.63 698.63 635.32" style="fill:#e6e6e6;stroke:#000;stroke-miterlimit:10"/><rect x="604.24" y="623.61" width="89.54" height="50.81" transform="translate(-268.83 649.01) rotate(-45)" style="fill:#ff7bac"/><path d="M437.59,374.28a104.33,104.33,0,0,1-63.32,63.31h0L329.14,329.13l108.44,45.14Z" style="fill:#fff;stroke:#000;stroke-miterlimit:10"/><path d="M388.65,354.11a56.51,56.51,0,0,1-34.55,34.54h0l-25-59.52,59.51,25Z" style="fill:#414141;stroke:#000;stroke-miterlimit:10"/></g></g></svg>